<?xml version="1.0"?>
<svg xmlns="http://www.w3.org/2000/svg" xmlns:xlink="http://www.w3.org/1999/xlink" xmlns:svgjs="http://svgjs.com/svgjs" version="1.1" width="60" height="60" x="0" y="0" viewBox="0 0 512 512" style="enable-background:new 0 0 512 512" xml:space="preserve" class=""><g transform="matrix(6.123233995736766e-17,1,-1,6.123233995736766e-17,512,0)"><g xmlns="http://www.w3.org/2000/svg"><path d="m391 150v-105c0-24.813-20.187-45-45-45s-45 20.187-45 45v105h-90v-105c0-24.813-20.187-45-45-45s-45 20.187-45 45v105h-30v67c0 29.02 9.589 57.786 27 81l63 84v70h30v60h90v-60h30v-70l63-84c17.411-23.214 27-51.98 27-81v-67zm-60-105c0-8.271 6.729-15 15-15s15 6.729 15 15v105h-30zm-180 0c0-8.271 6.729-15 15-15s15 6.729 15 15v105h-30zm120 437h-30v-30h30zm-60-60v-30h90v30zm180-205c0 22.57-7.458 44.944-21 63l-61.5 82h-105l-61.5-82c-13.542-18.056-21-40.43-21-63v-37h270z" fill="white" data-original="#000000" style="" class=""/></g></g></svg>
